HIERARCHY
ROOT Hips
{
	OFFSET 0.000000 88.474243 0.000000
	CHANNELS 6 Xposition Yposition Zposition Zrotation Yrotation Xrotation 
	JOINT Hips_Spine
	{
		OFFSET 0.000000 0.000000 0.000000
		CHANNELS 3 Zrotation Yrotation Xrotation
		JOINT Spine
		{
			OFFSET 0.005100 8.711998 -0.691000
			CHANNELS 3 Zrotation Yrotation Xrotation
			JOINT Spine1
			{
				OFFSET -0.009200 8.660301 -1.275000
				CHANNELS 3 Zrotation Yrotation Xrotation
				JOINT Spine2
				{
					OFFSET 0.006300 9.852501 -1.857000
					CHANNELS 3 Zrotation Yrotation Xrotation
					JOINT Spine2_Neck
					{
						OFFSET 0.000000 0.000000 0.000000
						CHANNELS 3 Zrotation Yrotation Xrotation
						JOINT Neck
						{
							OFFSET 0.016300 11.420799 -0.263300
							CHANNELS 3 Zrotation Yrotation Xrotation
							End Site #name: Head
							{
								OFFSET -0.019200 9.262405 2.362500
							}
						}
					}
					JOINT Spine2_LeftShoulder
					{
						OFFSET 0.000000 0.000000 0.000000
						CHANNELS 3 Zrotation Yrotation Xrotation
						JOINT LeftShoulder
						{
							OFFSET 5.616900 6.732201 -0.345700
							CHANNELS 3 Zrotation Yrotation Xrotation
							JOINT LeftArm
							{
								OFFSET 10.664888 -0.183372 -2.440700
								CHANNELS 3 Zrotation Yrotation Xrotation
								JOINT LeftForeArm
								{
									OFFSET 27.459126 0.000000 0.000000
									CHANNELS 3 Zrotation Yrotation Xrotation
									End Site #name: LeftHand
									{
										OFFSET 21.306858 0.000000 0.000000
									}
								}
							}
						}
					}
					JOINT Spine2_RightShoulder
					{
						OFFSET 0.000000 0.000000 0.000000
						CHANNELS 3 Zrotation Yrotation Xrotation
						JOINT RightShoulder
						{
							OFFSET -5.580300 6.737503 -0.344400
							CHANNELS 3 Zrotation Yrotation Xrotation
							JOINT RightArm
							{
								OFFSET -10.679335 -0.188484 -2.383900
								CHANNELS 3 Zrotation Yrotation Xrotation
								JOINT RightForeArm
								{
									OFFSET -27.503529 0.000000 0.000000
									CHANNELS 3 Zrotation Yrotation Xrotation
									End Site #name: RightHand
									{
										OFFSET -21.306808 0.000000 0.000000
									}
								}
							}
						}
					}
				}
			}
		}
	}
	JOINT Hips_LeftUpLeg
	{
		OFFSET 0.000000 0.000000 0.000000
		CHANNELS 3 Zrotation Yrotation Xrotation
		JOINT LeftUpLeg
		{
			OFFSET 6.857700 -6.739601 0.312100
			CHANNELS 3 Zrotation Yrotation Xrotation
			JOINT LeftLeg
			{
				OFFSET -0.367590 -34.731552 -4.572400
				CHANNELS 3 Zrotation Yrotation Xrotation
				End Site #name: LeftFoot
				{
					OFFSET 0.367590 -34.656704 -6.067400
				}
			}
		}
	}
	JOINT Hips_RightUpLeg
	{
		OFFSET 0.000000 0.000000 0.000000
		CHANNELS 3 Zrotation Yrotation Xrotation
		JOINT RightUpLeg
		{
			OFFSET -6.876100 -6.733299 0.301000
			CHANNELS 3 Zrotation Yrotation Xrotation
			JOINT RightLeg
			{
				OFFSET 0.347353 -34.795158 -4.515900
				CHANNELS 3 Zrotation Yrotation Xrotation
				End Site #name: RightFoot
				{
					OFFSET -0.347353 -34.589367 -6.070300
				}
			}
		}
	}
}
MOTION
Frames: 15
Frame Time: 0.041667
0.509794 0.752996 -1.122996 -0.498498 28.336664 -7.897116 -0.000000 0.000000 -0.000000 -0.263974 -1.990681 -5.452758 2.521266 -1.871851 -4.004078 0.000000 0.000000 0.000000 2.924896 -1.205007 -4.178368 1.431779 -5.310831 0.093213 1.800428 -1.496640 -4.391347 -19.083368 0.441107 9.295516 -55.284732 14.775091 -0.049715 -0.862571 -23.633495 7.283285 1.910619 -1.459941 -2.012909 6.863187 6.545523 1.610072 63.139460 0.575183 -9.929112 0.670477 44.296448 -0.734715 0.000000 -0.000000 -0.000000 -9.459765 22.841509 -1.354184 -2.222807 1.509000 18.296306 0.000000 0.000000 0.000000 -5.786773 6.301360 -16.778804 5.519693 -1.842931 12.223777 
0.287070 0.749286 -1.107832 -1.124433 29.831541 -8.418115 -0.000000 0.000000 -0.000000 0.820835 -1.891936 -5.822045 2.716998 -1.862039 -3.947382 0.000000 0.000000 0.000000 3.070073 -1.134209 -4.143319 1.405776 -5.392547 0.167676 2.003716 -1.446425 -4.306114 -18.553076 0.329478 9.336046 -56.043182 15.556656 -0.628654 -0.866900 -24.138768 7.114346 2.093347 -1.405637 -2.019540 7.139149 6.686190 1.674303 63.039873 0.463027 -9.823254 0.672318 44.497168 -0.739238 0.000000 -0.000000 -0.000000 -8.599977 23.198462 -0.800390 -2.463151 1.302879 18.046442 0.000000 0.000000 0.000000 -4.992462 6.453366 -17.037294 5.375448 -2.815887 12.268759 
0.097506 0.741904 -1.085247 -1.709945 31.356092 -8.916688 -0.000000 0.000000 -0.000000 1.799436 -1.738487 -6.082512 2.886003 -1.841696 -3.869506 0.000000 0.000000 0.000000 3.200231 -1.063908 -4.089651 1.413845 -5.547522 0.329886 2.186315 -1.396522 -4.197728 -18.037754 0.206793 9.345921 -56.702719 16.108253 -1.278805 -0.889529 -24.668886 6.948771 2.259605 -1.346751 -2.012637 7.460319 6.834669 1.741459 62.913267 0.382436 -9.656672 0.677807 44.795948 -0.741388 0.000000 -0.000000 -0.000000 -7.789073 23.488037 -0.119662 -2.659402 1.059696 17.603422 0.000000 -0.000000 0.000000 -4.242538 6.641720 -17.199260 5.346273 -3.718011 12.309975 
-0.053262 0.735211 -1.058817 -2.209576 32.726306 -9.351984 -0.000000 0.000000 -0.000000 2.457097 -1.557786 -6.344624 3.026367 -1.819449 -3.773971 0.000000 0.000000 0.000000 3.306494 -1.001909 -4.021270 1.437539 -5.673740 0.511920 2.337397 -1.349393 -4.080143 -17.508939 0.061125 9.313406 -57.310229 16.457956 -1.938094 -0.915247 -25.166512 6.784508 2.398111 -1.288996 -1.991137 7.787755 6.986673 1.806247 62.788919 0.327419 -9.479970 0.686682 45.138836 -0.739926 0.000000 -0.000000 -0.000000 -7.098402 23.630744 0.510682 -2.853362 0.806133 17.213634 0.000000 -0.000000 0.000000 -3.550369 6.916355 -17.310272 5.370745 -4.502141 12.393602 
-0.159354 0.729503 -1.032178 -2.604509 33.680604 -9.724590 -0.000000 -0.000000 -0.000000 2.997348 -1.340936 -6.486070 3.141434 -1.801141 -3.671826 0.000000 0.000000 0.000000 3.389741 -0.951435 -3.941963 1.463964 -5.748667 0.706606 2.460944 -1.309325 -3.959003 -16.980413 -0.106858 9.259159 -57.907025 16.728236 -2.517948 -0.942025 -25.653234 6.615367 2.510104 -1.239735 -1.958127 8.092577 7.116199 1.862901 62.677608 0.287993 -9.291049 0.698025 45.484968 -0.735067 0.000000 -0.000000 -0.000000 -6.517528 23.634042 1.132323 -3.041423 0.596667 16.908858 0.000000 -0.000000 0.000000 -2.943825 7.315016 -17.416609 5.497774 -4.902962 12.585075 
-0.216895 0.724941 -1.009539 -2.834284 33.891371 -9.981142 -0.000000 -0.000000 -0.000000 3.419775 -1.226219 -6.526243 3.236434 -1.789586 -3.567707 0.000000 0.000000 0.000000 3.456399 -0.911905 -3.852277 1.489532 -5.764681 0.903922 2.562215 -1.279114 -3.837953 -16.479869 -0.269194 9.190369 -58.473568 16.921170 -3.048731 -0.971265 -26.122496 6.455019 2.600393 -1.201968 -1.917427 8.354248 7.223243 1.903864 62.561238 0.255418 -9.084975 0.712768 45.872389 -0.731165 0.000000 -0.000000 -0.000000 -6.028715 23.518573 1.759132 -3.252110 0.420905 16.657986 0.000000 -0.000000 0.000000 -2.446767 7.785598 -17.528836 5.613466 -5.260272 12.874017 
-0.222247 0.722887 -0.996312 -2.896986 33.327734 -10.125936 -0.000000 -0.000000 0.000000 3.751840 -1.224835 -6.490147 3.319408 -1.783705 -3.452522 0.000000 0.000000 0.000000 3.511663 -0.881797 -3.749889 1.519059 -5.706012 1.096814 2.647891 -1.254863 -3.709442 -16.041966 -0.424678 9.099857 -59.019633 17.045846 -3.514850 -1.008186 -26.521809 6.326484 2.678220 -1.174292 -1.865809 8.585610 7.323563 1.938996 62.442897 0.239709 -8.902567 0.728461 46.332437 -0.725421 0.000000 -0.000000 -0.000000 -5.621890 23.300234 2.344487 -3.531741 0.281454 16.532079 0.000000 -0.000000 0.000000 -2.043100 8.258587 -17.619205 5.715284 -5.518839 13.284087 
-0.169643 0.724112 -0.999422 -2.807788 32.016091 -10.162762 -0.000000 -0.000000 0.000000 4.049005 -1.337306 -6.390265 3.393054 -1.786769 -3.318919 0.000000 0.000000 0.000000 3.558769 -0.861623 -3.633893 1.593174 -5.575803 1.266289 2.719738 -1.237923 -3.572774 -15.713613 -0.545997 8.992685 -59.503711 17.122334 -3.890178 -1.048636 -26.876121 6.214776 2.746856 -1.158917 -1.805670 8.782078 7.430449 1.971209 62.305791 0.222444 -8.753180 0.747972 46.901534 -0.716390 0.000000 -0.000000 -0.000000 -5.379560 23.003912 2.847823 -3.831713 0.141412 16.500242 0.000000 -0.000000 0.000000 -1.699939 8.688247 -17.679746 5.804982 -5.676094 13.791436 
-0.052309 0.729556 -1.020963 -2.566155 30.022101 -10.092400 -0.000000 -0.000000 0.000000 4.279942 -1.541456 -6.250306 3.462338 -1.804183 -3.172651 0.000000 0.000000 0.000000 3.602917 -0.851100 -3.506792 1.703660 -5.364549 1.427458 2.792623 -1.230559 -3.428846 -15.522395 -0.639448 8.864532 -59.900158 17.073762 -4.142409 -1.109705 -27.130881 6.159243 2.810545 -1.160946 -1.745132 8.947403 7.537127 2.005814 62.173766 0.217642 -8.615810 0.771000 47.500341 -0.696381 0.000000 -0.000000 -0.000000 -5.307722 22.591647 3.212353 -4.147500 -0.024561 16.676630 0.000000 -0.000000 0.000000 -1.436867 9.061238 -17.769864 5.915659 -5.680495 14.389840 
0.123265 0.738426 -1.051395 -2.205133 27.543330 -9.926706 -0.000000 -0.000000 0.000000 4.434423 -1.713284 -6.074507 3.529931 -1.832597 -3.024558 0.000000 0.000000 0.000000 3.644153 -0.853215 -3.367824 1.851490 -5.076406 1.574456 2.864789 -1.236391 -3.289843 -15.459476 -0.706434 8.739820 -60.198749 16.912366 -4.191266 -1.177348 -27.304729 6.145565 2.868964 -1.178264 -1.679733 9.048976 7.636964 2.031623 62.057376 0.205955 -8.478968 0.794400 47.994718 -0.671029 0.000000 -0.000000 -0.000000 -5.386688 22.177841 3.424744 -4.474234 -0.248574 17.138192 0.000000 -0.000000 0.000000 -1.258656 9.420346 -17.945900 6.017907 -5.626430 15.139873 
0.350761 0.743104 -1.090339 -1.765445 24.782276 -9.675460 -0.000000 -0.000000 0.000000 4.505570 -1.909235 -5.926907 3.595400 -1.866863 -2.877591 0.000000 0.000000 0.000000 3.684436 -0.862989 -3.225592 2.012125 -4.717197 1.711350 2.941532 -1.251066 -3.153399 -15.506508 -0.737722 8.621144 -60.392125 16.659897 -4.109064 -1.258131 -27.376000 6.154926 2.925760 -1.204560 -1.613766 9.090661 7.717581 2.042404 61.955546 0.178212 -8.321417 0.816236 48.390000 -0.647682 0.000000 -0.000000 -0.000000 -5.614156 21.662183 3.490846 -4.775207 -0.506346 17.842242 0.000000 -0.000000 0.000000 -1.184899 9.735634 -18.241938 6.125362 -5.467834 16.104834 
0.627496 0.742657 -1.137508 -1.279797 21.886737 -9.394811 -0.000000 -0.000000 0.000000 4.557097 -2.117120 -5.827208 3.660344 -1.907086 -2.736595 0.000000 0.000000 0.000000 3.721523 -0.877313 -3.088654 2.188967 -4.288028 1.828791 3.018910 -1.271173 -3.027495 -15.643401 -0.721659 8.521078 -60.471303 16.331256 -3.890469 -1.340583 -27.400160 6.155724 2.984025 -1.238204 -1.553484 9.066301 7.788876 2.044693 61.864079 0.172255 -8.164389 0.834977 48.690955 -0.624492 0.000000 -0.000000 -0.000000 -6.014456 20.994702 3.416649 -5.023715 -0.787966 18.744260 0.000000 -0.000000 0.000000 -1.229804 10.026251 -18.626334 6.229024 -5.199466 17.237743 
0.948065 0.736687 -1.193065 -0.818432 19.159534 -9.131360 -0.000000 -0.000000 0.000000 4.592516 -2.347134 -5.775683 3.727571 -1.950677 -2.611942 0.000000 0.000000 0.000000 3.755886 -0.891230 -2.968423 2.287259 -3.943136 1.948328 3.097100 -1.294179 -2.927105 -15.838001 -0.682123 8.414666 -60.496726 16.021317 -3.583766 -1.421211 -27.356625 6.120596 3.042068 -1.273567 -1.504641 8.979142 7.850348 2.042789 61.782398 0.132508 -8.055106 0.850188 48.913420 -0.603632 0.000000 -0.000000 -0.000000 -6.524646 20.152364 3.200219 -5.242771 -1.099782 19.762486 0.000000 -0.000000 0.000000 -1.403442 10.314619 -19.077123 6.332074 -4.861613 18.526381 
1.303332 0.730226 -1.253554 -0.414744 16.821946 -8.891352 -0.000000 -0.000000 0.000000 4.642753 -2.566541 -5.767448 3.798812 -1.988772 -2.525687 0.000000 0.000000 0.000000 3.787981 -0.901410 -2.876474 2.333437 -3.503961 2.055940 3.176284 -1.314492 -2.856303 -16.068687 -0.631728 8.312824 -60.436839 15.748350 -3.250640 -1.495890 -27.315882 6.036455 3.101286 -1.307964 -1.474720 8.847416 7.900842 2.037514 61.716631 0.008059 -8.013697 0.862698 49.057469 -0.583414 0.000000 -0.000000 -0.000000 -7.096189 19.233933 2.885624 -5.419584 -1.454172 20.804813 0.000000 -0.000000 0.000000 -1.706766 10.545199 -19.522087 6.422172 -4.485336 19.834193 
1.687838 0.725400 -1.317470 -0.081379 14.650080 -8.696435 -0.000000 -0.000000 0.000000 4.696362 -2.759463 -5.797075 3.879473 -2.018435 -2.469320 0.000000 0.000000 0.000000 3.829127 -0.906055 -2.807786 2.320665 -3.221901 2.166041 3.259502 -1.329817 -2.813261 -16.309259 -0.566013 8.223853 -60.354796 15.629666 -2.996169 -1.554251 -27.264699 5.902746 3.166834 -1.337698 -1.463235 8.698522 7.949625 2.033546 61.663673 -0.211190 -8.104056 0.873769 49.132912 -0.563747 0.000000 -0.000000 -0.000000 -7.692872 18.400167 2.474035 -5.578472 -1.905980 21.875922 0.000000 -0.000000 0.000000 -2.106072 10.632905 -20.004083 6.486219 -4.078340 21.129760 
